# xmcd
# 
# Track frame offsets:
#     150
#     13361
#     28288
#     45820
#     62766
#     82228
#     105063
#     125399
#     142270
#     169187
#     190752
#     208332
#     235981
#     253637
#     272385
# 
# Disc length: 3968
# 
# Revision: 1
# Processed by: cddbd v1.5.2PL0 Copyright (c) Steve Scherf et al.
# Submitted via: fre:ac v1.0.27
# 
DISCID=d40f7e0f
DTITLE=Marillion - The Singles (Vol. 2) '89 - '95 [disc 1 of 4]
DYEAR=2013
DGENRE=Progressive Rock
TTITLE0=Hooks In You (7" Version)
TTITLE1=After Me (Album Version)
TTITLE2=Hooks In You (Meaty Mix)
TTITLE3=The Uninvited Guest (7" Version)
TTITLE4=The Bell In The Sea
TTITLE5=The Uninvited Guest (12" Version)
TTITLE6=Easter (7" Edit)
TTITLE7=The Release
TTITLE8=Easter (12" Edit)
TTITLE9=The Uninvited Guest (live 1989)
TTITLE10=Warm Wet Circles (live)
TTITLE11=That Time Of The Night (The Short Straw) (live)
TTITLE12=Cover My Eyes (Pain and Heaven)
TTITLE13=How Can It Hurt
TTITLE14=The Party (Album Version)
EXTD=
EXTT0=
EXTT1=
EXTT2=
EXTT3=
EXTT4=
EXTT5=
EXTT6=
EXTT7=
EXTT8=
EXTT9=
EXTT10=
EXTT11=
EXTT12=
EXTT13=
EXTT14=
PLAYORDER=
